# File created by Blade
# Date/Time:  Fri Jan 16 19:32:17 2015
# Frame Rate: 120.000 fps
#------------------------------------------------------
:FULLY-SPECIFIED
:DEGREES
638
root 19.715370 35.429686 -19.915306 10.375715 11.969106 0.429712
Spine -22.547802 -8.420204 -2.021184
Head 16.514912 -6.049388 6.800158
LeftShoulder -5.638523 5.897427 0.187820
LeftArm -94.892232 48.426375 -170.573428
LeftForeArm 48.997506 -0.000000 120.617014
LeftHand 10.769379 -0.000000 -23.051895
LeftHandThumb1 -26.253704 0.000000 33.147579
RightShoulder -12.647353 13.128428 -31.273053
RightArm -307.532825 79.366264 -324.334779
RightForeArm -13.141856 -0.000000 52.200668
RightHand -3.549531 -0.000000 -19.074347
RightHandThumb1 -24.326973 -0.000000 -32.862282
LeftUpLeg -1.191145 0.027496 1.055171
LeftLeg -6.769487 -0.000000 0.000000
LeftFoot -20.020536 26.427694 -13.251882
LeftToeBase 25.757374 -0.000000 -0.000000
RightUpLeg 1.631615 -16.785240 -1.391011
RightLeg -4.573371 -0.000000 0.000000
RightFoot -23.816403 -25.190007 20.712549
RightToeBase 23.831219 -0.000000 -0.000000
639
root 19.714561 35.429534 -19.913657 10.383597 11.994942 0.439058
Spine -22.563816 -8.447119 -2.049316
Head 16.521588 -6.051788 6.846922
LeftShoulder -5.637510 5.911997 0.215013
LeftArm -94.844592 48.408059 -170.455053
LeftForeArm 48.277587 -0.000000 120.568536
LeftHand 10.655111 -0.000000 -23.259794
LeftHandThumb1 -26.253704 0.000000 33.147579
RightShoulder -12.686233 13.138719 -31.318933
RightArm -308.675500 79.247966 -325.569808
RightForeArm -13.328113 0.000000 51.587828
RightHand -3.666244 -0.000000 -19.084466
RightHandThumb1 -24.326973 -0.000000 -32.862282
LeftUpLeg -1.194285 -0.006355 1.043718
LeftLeg -6.789831 -0.000000 0.000000
LeftFoot -19.999314 26.526542 -13.202670
LeftToeBase 25.845231 -0.000000 -0.000000
RightUpLeg 1.631010 -16.802076 -1.395570
RightLeg -4.569701 -0.000000 0.000000
RightFoot -23.827204 -25.188482 20.711874
RightToeBase 23.836342 -0.000000 -0.000000
640
root 19.712280 35.429272 -19.911309 10.382135 12.025258 0.439973
Spine -22.570020 -8.485371 -2.069736
Head 16.534209 -6.066027 6.884987
LeftShoulder -5.643388 5.910231 0.241924
LeftArm -94.773070 48.374360 -170.317586
LeftForeArm 47.612617 -0.000000 120.577655
LeftHand 10.527818 -0.000000 -23.496382
LeftHandThumb1 -26.253704 0.000000 33.147579
RightShoulder -12.726204 13.184750 -31.379472
RightArm -309.695827 79.105981 -326.644329
RightForeArm -13.583798 -0.000000 50.986429
RightHand -3.606044 -0.000000 -19.040394
RightHandThumb1 -24.326973 -0.000000 -32.862282
LeftUpLeg -1.192079 -0.039796 1.053544
LeftLeg -6.793927 -0.000000 0.000000
LeftFoot -19.986883 26.528574 -13.195527
LeftToeBase 25.809281 -0.000000 -0.000000
RightUpLeg 1.643888 -16.820612 -1.388813
RightLeg -4.576995 -0.000000 0.000000
RightFoot -23.833217 -25.205860 20.717345
RightToeBase 23.868703 -0.000000 -0.000000
641
root 19.710267 35.429576 -19.910023 10.384107 12.044477 0.441749
Spine -22.575870 -8.521852 -2.093006
Head 16.536137 -6.060148 6.940328
LeftShoulder -5.650891 5.930514 0.268541
LeftArm -94.673807 48.349246 -170.169944
LeftForeArm 47.176553 -0.000000 120.643640
LeftHand 10.414635 -0.000000 -23.775639
LeftHandThumb1 -26.253704 0.000000 33.147579
RightShoulder -12.743007 13.212886 -31.419079
RightArm -310.855697 78.989156 -327.886299
RightForeArm -13.765888 0.000000 50.362507
RightHand -4.128249 -0.000000 -19.063369
RightHandThumb1 -24.326973 -0.000000 -32.862282
LeftUpLeg -1.194573 -0.067484 1.058222
LeftLeg -6.796365 -0.000000 0.000000
LeftFoot -19.987768 26.538594 -13.210339
LeftToeBase 25.787912 -0.000000 -0.000000
RightUpLeg 1.645881 -16.829534 -1.381801
RightLeg -4.577586 -0.000000 0.000000
RightFoot -23.845253 -25.222506 20.728898
RightToeBase 23.821181 -0.000000 -0.000000
642
root 19.706989 35.429748 -19.909342 10.387392 12.069639 0.437802
Spine -22.582284 -8.565915 -2.114518
Head 16.537205 -6.059708 7.002962
LeftShoulder -5.649951 5.954880 0.302072
LeftArm -94.550612 48.332004 -170.024640
LeftForeArm 46.812313 -0.000000 120.741746
LeftHand 10.274805 0.000000 -24.080431
LeftHandThumb1 -26.253704 0.000000 33.147579
RightShoulder -12.774306 13.222378 -31.443314
RightArm -311.889726 78.858485 -329.005134
RightForeArm -13.998607 0.000000 49.702777
RightHand -4.237026 -0.000000 -18.990463
RightHandThumb1 -24.326973 -0.000000 -32.862282
LeftUpLeg -1.203084 -0.104687 1.072955
LeftLeg -6.793147 -0.000000 0.000000
LeftFoot -19.981447 26.546014 -13.212719
LeftToeBase 25.759060 -0.000000 -0.000000
RightUpLeg 1.641738 -16.841297 -1.365393
RightLeg -4.573832 -0.000000 0.000000
RightFoot -23.858914 -25.244865 20.734576
RightToeBase 23.832266 -0.000000 -0.000000
643
root 19.705118 35.429962 -19.907039 10.378006 12.087082 0.437022
Spine -22.573934 -8.596317 -2.146032
Head 16.531150 -6.075988 7.064785
LeftShoulder -5.640780 5.931955 0.355233
LeftArm -94.445602 48.272855 -169.945807
LeftForeArm 46.554479 0.000000 120.862609
LeftHand 10.032107 -0.000000 -24.404954
LeftHandThumb1 -26.253704 0.000000 33.147579
RightShoulder -12.812272 13.222953 -31.468772
RightArm -313.077828 78.708746 -330.266912
RightForeArm -14.125984 -0.000000 49.052245
RightHand -3.947049 -0.000000 -18.925841
RightHandThumb1 -24.326973 -0.000000 -32.862282
LeftUpLeg -1.185794 -0.123947 1.081464
LeftLeg -6.808649 -0.000000 0.000000
LeftFoot -19.971033 26.553357 -13.209561
LeftToeBase 25.809040 -0.000000 -0.000000
RightUpLeg 1.654408 -16.854026 -1.361193
RightLeg -4.569354 -0.000000 0.000000
RightFoot -23.861135 -25.246541 20.744467
RightToeBase 23.798699 -0.000000 -0.000000
644
root 19.703332 35.430004 -19.904912 10.369024 12.104482 0.431037
Spine -22.565085 -8.630153 -2.168095
Head 16.507574 -6.076847 7.123527
LeftShoulder -5.628143 5.911331 0.425194
LeftArm -94.337137 48.249609 -169.860445
LeftForeArm 46.355149 -0.000000 120.990519
LeftHand 9.886371 -0.000000 -24.686792
LeftHandThumb1 -26.253704 0.000000 33.147579
RightShoulder -12.828974 13.253035 -31.491469
RightArm -314.458080 78.553684 -331.744072
RightForeArm -14.152239 -0.000000 48.348707
RightHand -3.948241 -0.000000 -18.790998
RightHandThumb1 -24.326973 -0.000000 -32.862282
LeftUpLeg -1.174147 -0.133404 1.092722
LeftLeg -6.815960 -0.000000 0.000000
LeftFoot -19.976906 26.547445 -13.228412
LeftToeBase 25.771582 -0.000000 -0.000000
RightUpLeg 1.667003 -16.883483 -1.351905
RightLeg -4.569334 -0.000000 0.000000
RightFoot -23.863106 -25.235137 20.750787
RightToeBase 23.829714 -0.000000 -0.000000
645
root 19.701869 35.430281 -19.902078 10.349126 12.122230 0.427320
Spine -22.544822 -8.675586 -2.191007
Head 16.495129 -6.076774 7.178154
LeftShoulder -5.630996 5.896325 0.462582
LeftArm -94.217637 48.209314 -169.751822
LeftForeArm 46.197388 -0.000000 121.108052
LeftHand 9.781055 0.000000 -24.971583
LeftHandThumb1 -26.253704 0.000000 33.147579
RightShoulder -12.837275 13.283948 -31.495645
RightArm -315.659754 78.402954 -333.064259
RightForeArm -14.290766 -0.000000 47.651697
RightHand -4.261997 -0.000000 -18.586025
RightHandThumb1 -24.326973 -0.000000 -32.862282
LeftUpLeg -1.146905 -0.167776 1.103658
LeftLeg -6.826063 -0.000000 0.000000
LeftFoot -19.961605 26.565657 -13.215249
LeftToeBase 25.764366 -0.000000 -0.000000
RightUpLeg 1.693836 -16.907186 -1.348894
RightLeg -4.571575 -0.000000 0.000000
RightFoot -23.864718 -25.232526 20.762083
RightToeBase 23.845042 -0.000000 -0.000000
646
root 19.699642 35.430578 -19.902299 10.350367 12.125948 0.412502
Spine -22.540565 -8.708617 -2.197991
Head 16.456356 -6.067937 7.226533
LeftShoulder -5.645774 5.887387 0.496289
LeftArm -94.113344 48.192056 -169.673329
LeftForeArm 46.037318 -0.000000 121.198979
LeftHand 9.589305 -0.000000 -25.198147
LeftHandThumb1 -26.253704 0.000000 33.147579
RightShoulder -12.828413 13.289571 -31.494368
RightArm -317.141943 78.246633 -334.667589
RightForeArm -14.379455 0.000000 46.956057
RightHand -4.425023 0.000000 -18.516595
RightHandThumb1 -24.326973 -0.000000 -32.862282
LeftUpLeg -1.152402 -0.169939 1.121781
LeftLeg -6.827663 -0.000000 0.000000
LeftFoot -19.966040 26.568313 -13.219225
LeftToeBase 25.768165 -0.000000 -0.000000
RightUpLeg 1.677562 -16.923939 -1.325025
RightLeg -4.554866 -0.000000 0.000000
RightFoot -23.858313 -25.228320 20.768366
RightToeBase 23.806931 -0.000000 -0.000000
647
root 19.697423 35.431301 -19.902458 10.348101 12.136471 0.402984
Spine -22.532578 -8.758971 -2.210793
Head 16.425828 -6.063096 7.265523
LeftShoulder -5.664069 5.862032 0.525418
LeftArm -94.046975 48.155490 -169.631219
LeftForeArm 45.830592 -0.000000 121.273842
LeftHand 9.612308 -0.000000 -25.203435
LeftHandThumb1 -26.253704 0.000000 33.147579
RightShoulder -12.830932 13.309291 -31.503117
RightArm -318.510517 78.073637 -336.110205
RightForeArm -14.379423 -0.000000 46.297434
RightHand -4.327627 -0.000000 -18.311094
RightHandThumb1 -24.326973 -0.000000 -32.862282
LeftUpLeg -1.158644 -0.186541 1.137172
LeftLeg -6.820181 -0.000000 0.000000
LeftFoot -19.978855 26.572250 -13.229501
LeftToeBase 25.765011 -0.000000 -0.000000
RightUpLeg 1.670818 -16.948650 -1.310765
RightLeg -4.540228 -0.000000 0.000000
RightFoot -23.859438 -25.207041 20.789515
RightToeBase 23.788015 -0.000000 -0.000000
648
root 19.696136 35.431627 -19.901513 10.344740 12.136339 0.391878
Spine -22.530412 -8.796261 -2.216523
Head 16.398613 -6.034832 7.309157
LeftShoulder -5.681596 5.839198 0.534773
LeftArm -94.004882 48.121215 -169.595687
LeftForeArm 45.677533 -0.000000 121.324540
LeftHand 9.550434 -0.000000 -25.262502
LeftHandThumb1 -26.253704 0.000000 33.147579
RightShoulder -12.827548 13.374241 -31.530036
RightArm -320.014705 77.814275 -337.697302
RightForeArm -14.408761 -0.000000 45.615355
RightHand -4.645601 -0.000000 -18.334343
RightHandThumb1 -24.326973 -0.000000 -32.862282
LeftUpLeg -1.155047 -0.192172 1.150587
LeftLeg -6.822362 -0.000000 0.000000
LeftFoot -19.976259 26.579753 -13.215883
LeftToeBase 25.797807 -0.000000 -0.000000
RightUpLeg 1.666107 -16.946670 -1.296474
RightLeg -4.532648 -0.000000 0.000000
RightFoot -23.867311 -25.213194 20.800885
RightToeBase 23.804104 -0.000000 -0.000000
649
root 19.695173 35.432064 -19.901789 10.339839 12.138607 0.380492
Spine -22.522714 -8.828820 -2.223979
Head 16.373261 -6.031427 7.336238
LeftShoulder -5.693982 5.820578 0.543062
LeftArm -93.990267 48.098937 -169.598599
LeftForeArm 45.658273 0.000000 121.359437
LeftHand 9.519445 -0.000000 -25.271082
LeftHandThumb1 -26.253704 0.000000 33.147579
RightShoulder -12.861751 13.376916 -31.531711
RightArm -320.959529 77.617132 -338.694978
RightForeArm -14.538260 -0.000000 45.010814
RightHand -4.275973 -0.000000 -18.105269
RightHandThumb1 -24.326973 -0.000000 -32.862282
LeftUpLeg -1.154809 -0.202782 1.163972
LeftLeg -6.819573 -0.000000 0.000000
LeftFoot -19.976206 26.589418 -13.208941
LeftToeBase 25.811212 -0.000000 -0.000000
RightUpLeg 1.660553 -16.952602 -1.283831
RightLeg -4.519808 -0.000000 0.000000
RightFoot -23.859925 -25.216592 20.792394
RightToeBase 23.819723 -0.000000 -0.000000
